<svg id="Layer_1" data-name="Layer 1" xmlns="http://www.w3.org/2000/svg" viewBox="0 0 256.60896 454.82845"><defs><style>.cls-1{fill:#bcbebd;}.cls-2{fill:#d9dad9;}.cls-3{fill:#787879;}.cls-4{fill:#474647;}.cls-5{fill:#575423;}.cls-6{fill:#fff;}.cls-7{fill:#9b9835;}.cls-8{fill:#a3a3a4;}.cls-9{fill:#3d3d3d;}.cls-10{fill:#b0b1b1;}.cls-11{fill:#595a5a;}</style></defs><title>astronaut</title><path class="cls-1" d="M195.56618,573.34223l-5.32248-1.717A22.24241,22.24241,0,0,1,175.946,543.7105l11.00777-34.12358a22.24241,22.24241,0,0,1,27.91477-14.29766l5.32248,1.717c11.60842,3.74471,21.33453,5.9848,17.58982,17.59322l-14.29993,44.44514A22.24241,22.24241,0,0,1,195.56618,573.34223Z" transform="translate(-173.35184 -168.92155)"/><rect class="cls-1" x="87.18481" y="374.02618" width="49.94699" height="80.60943" rx="24.97347" ry="24.97347"/><path class="cls-1" d="M287.3814,446.40945s-2.306,51.12505-7.633,66.9439-19.86609,48.87118-19.86609,48.87118L299.62,582.48106s30.72041-44.20322,34.90189-61.09815,6.46436-67.966,6.46436-67.966Z" transform="translate(-173.35184 -168.92155)"/><path class="cls-2" d="M300.39139,504.31434c-0.51425-15.68477-14.65629-32.30169-14.65629-32.30169l-0.05659.10725c-1.23824,15.09063-3.18092,32.65163-5.93009,40.81555-5.32689,15.81889-19.61538,49.1219-19.61538,49.1219l6.64492,3.26447,25.64252-10.257S300.90565,519.99911,300.39139,504.31434Z" transform="translate(-173.35184 -168.92155)"/><path class="cls-2" d="M247.68028,415.00765s-16.4192,43.894-23.89437,54.34507-32.258,32.57172-32.258,32.57172l29.92542,27.762s38.01151-24.8068,47.28976-38.11614,24.71358-54.95919,24.71358-54.95919Z" transform="translate(-173.35184 -168.92155)"/><path class="cls-1" d="M268.743,491.44174c6.322-9.06864,15.49864-31.28627,20.70707-44.52933l-48.28342-15.2153s14.356,18.749,7.41354,41.11913-21.98439,43.58309-21.98439,43.58309L222.577,529.02947C230.14485,523.98563,260.53665,503.67152,268.743,491.44174Z" transform="translate(-173.35184 -168.92155)"/><path class="cls-3" d="M267.24759,339.91192s3.29416-43.56048,13.42393-51.57207,16.93218-4.09677,23.93926,2.90834Z" transform="translate(-173.35184 -168.92155)"/><path class="cls-1" d="M338.70337,469.51865L241.1667,431.82572s26.65674-146.41026,54.85353-146.7062c16.54337-.21832,20.51609,1.71168,20.51609,1.71168l67.8904,23.20209,22.632,15.86576C402.00862,373.48077,372.99445,420.69625,338.70337,469.51865Z" transform="translate(-173.35184 -168.92155)"/><rect class="cls-3" x="288.44526" y="444.72107" width="61.96769" height="12.44071" rx="1.33333" ry="1.33333" transform="matrix(0.94044, 0.33996, -0.33996, 0.94044, -1.0239, -250.65673)"/><path class="cls-3" d="M326.05366,275.04134l-13.71331,11.5755c16.84931,21.04014,46.54752,32.99656,74.99134,25.62889l-5.10139-17.19247Z" transform="translate(-173.35184 -168.92155)"/><circle class="cls-2" cx="369.83869" cy="244.47118" r="58.47556" transform="translate(-154.45099 346.45449) rotate(-71.13173)"/><path class="cls-1" d="M351.31378,300.19015A58.4747,58.4747,0,0,0,407.91206,200.148l-82.4,82.4A58.19655,58.19655,0,0,0,351.31378,300.19015Z" transform="translate(-173.35184 -168.92155)"/><path class="cls-4" d="M425.6223,263.46008a62.02143,62.02143,0,0,0,.79362-39.11237L397.457,210.84852l-18.89886,75.39036,29.84577,3.95243A62.05948,62.05948,0,0,0,425.6223,263.46008Z" transform="translate(-173.35184 -168.92155)"/><path class="cls-3" d="M392.921,390.29566c-3.71047,2.06077-7.3162,2.2884-9.78422,1.46958s-5.22261-3.15662-6.96542-7.02664c-4.9959-11.09372-7.38212-72.64,29.35292-60.45231S403.55735,384.38829,392.921,390.29566Z" transform="translate(-173.35184 -168.92155)"/><path class="cls-5" d="M426.8112,263.38179a58.18851,58.18851,0,0,0,.69935-35.593L402.6638,217.01958l-16.68114,66.43528,24.99393,4.14439A58.20688,58.20688,0,0,0,426.8112,263.38179Z" transform="translate(-173.35184 -168.92155)"/><circle class="cls-6" cx="243.58253" cy="65.26129" r="4.04976"/><circle class="cls-6" cx="246.08952" cy="73.93934" r="2.31415"/><path class="cls-7" d="M426.8112,263.36572a58.18851,58.18851,0,0,0,.69935-35.593l-5.62576-2.43833c8.09879,25.3238-2.1863,45.894-15.57331,61.47525l4.66511,0.77353A58.20688,58.20688,0,0,0,426.8112,263.36572Z" transform="translate(-173.35184 -168.92155)"/><path class="cls-8" d="M374.24008,307.45227l-7.07135-15.02453a18.4117,18.4117,0,0,1-1.07553,12.41989l-54.4363,118.15866a18.56755,18.56755,0,0,1-24.56106,9.068l-58.52777-26.964a18.36854,18.36854,0,0,1-8.44989-7.93171l8.66957,18.63878a18.71854,18.71854,0,0,0,.836,1.7971l0.28334,0.60923,0.05744,0.02025a18.36675,18.36675,0,0,0,8.22371,7.51372l58.52777,26.9641a18.56767,18.56767,0,0,0,24.56106-9.068l54.4363-118.15866A18.528,18.528,0,0,0,374.24008,307.45227Z" transform="translate(-173.35184 -168.92155)"/><path class="cls-3" d="M218.45668,393.60657l0.5436,1.16875c-0.13126-.35085-0.23588-0.71055-0.346-1.06865Z" transform="translate(-173.35184 -168.92155)"/><path class="cls-2" d="M220.11819,397.17854l-1.1179-2.40322A18.72947,18.72947,0,0,0,220.11819,397.17854Z" transform="translate(-173.35184 -168.92155)"/><path class="cls-2" d="M367.16874,292.42774a18.49612,18.49612,0,0,0-10.14351-12.14117l-58.52777-26.9641a18.56759,18.56759,0,0,0-24.56106,9.06807L219.5001,380.5492a18.40857,18.40857,0,0,0-.84577,13.15747c0.11008,0.3581.21469,0.7178,0.346,1.06865l1.1179,2.40322a18.36854,18.36854,0,0,0,8.44989,7.93171l58.52777,26.964a18.56755,18.56755,0,0,0,24.56106-9.068l54.4363-118.15866A18.4117,18.4117,0,0,0,367.16874,292.42774Z" transform="translate(-173.35184 -168.92155)"/><rect class="cls-3" x="85.64204" y="377.30455" width="44.35447" height="77.5239" rx="22.17721" ry="22.17721"/><rect class="cls-9" x="89.49896" y="393.50358" width="35.48358" height="2.31415" rx="0.75" ry="0.75"/><rect class="cls-9" x="89.56324" y="398.90325" width="35.48358" height="2.31415" rx="0.75" ry="0.75"/><rect class="cls-9" x="89.49896" y="398.90325" width="35.48358" height="2.31415" rx="0.75" ry="0.75"/><rect class="cls-9" x="89.56324" y="404.30293" width="35.48358" height="2.31415" rx="0.75" ry="0.75"/><rect class="cls-9" x="89.62752" y="404.23865" width="35.48358" height="2.31415" rx="0.75" ry="0.75"/><rect class="cls-9" x="89.62752" y="409.63832" width="35.48358" height="2.31415" rx="0.75" ry="0.75"/><rect class="cls-9" x="89.6918" y="415.038" width="35.48358" height="2.31415" rx="0.75" ry="0.75"/><rect class="cls-9" x="89.6918" y="415.038" width="35.48358" height="2.31415" rx="0.75" ry="0.75"/><rect class="cls-9" x="89.6918" y="420.43767" width="35.48358" height="2.31415" rx="0.75" ry="0.75"/><rect class="cls-9" x="89.75608" y="425.83734" width="35.48358" height="2.31415" rx="0.75" ry="0.75"/><rect class="cls-9" x="89.75608" y="425.83734" width="35.48358" height="2.31415" rx="0.75" ry="0.75"/><rect class="cls-9" x="89.75608" y="431.23702" width="35.48358" height="2.31415" rx="0.75" ry="0.75"/><rect class="cls-9" x="89.82036" y="436.63669" width="35.48358" height="2.31415" rx="0.75" ry="0.75"/><rect class="cls-3" x="178.4392" y="495.68319" width="44.35447" height="77.5239" rx="22.17721" ry="22.17721" transform="translate(0.41481 -204.70237) rotate(17.87894)"/><rect class="cls-9" x="188.89579" y="512.73835" width="35.48358" height="2.31415" rx="0.75" ry="0.75" transform="translate(-5.60333 -207.5433) rotate(17.87894)"/><rect class="cls-8" x="216.42778" y="396.91356" width="101.57879" height="2.57127" transform="matrix(0.90803, 0.4189, -0.4189, 0.90803, 18.03103, -244.23769)"/><rect class="cls-9" x="187.29923" y="517.89699" width="35.48358" height="2.31415" rx="0.75" ry="0.75" transform="translate(-4.09669 -206.80402) rotate(17.87894)"/><rect class="cls-9" x="187.23805" y="517.87726" width="35.48358" height="2.31415" rx="0.75" ry="0.75" transform="translate(-4.1057 -206.78619) rotate(17.87894)"/><rect class="cls-9" x="185.64149" y="523.0359" width="35.48358" height="2.31415" rx="0.75" ry="0.75" transform="translate(-2.59907 -206.04691) rotate(17.87894)"/><rect class="cls-9" x="185.72241" y="522.99446" width="35.48358" height="2.31415" rx="0.75" ry="0.75" transform="translate(-2.60788 -206.07376) rotate(17.87894)"/><rect class="cls-9" x="184.06467" y="528.13337" width="35.48358" height="2.31415" rx="0.75" ry="0.75" transform="translate(-1.11026 -205.31665) rotate(17.87894)"/><rect class="cls-9" x="182.46811" y="533.29202" width="35.48358" height="2.31415" rx="0.75" ry="0.75" transform="translate(0.39638 -204.57737) rotate(17.87894)"/><rect class="cls-9" x="182.46811" y="533.29202" width="35.48358" height="2.31415" rx="0.75" ry="0.75" transform="translate(0.39638 -204.57737) rotate(17.87894)"/><rect class="cls-9" x="180.81037" y="538.43093" width="35.48358" height="2.31415" rx="0.75" ry="0.75" transform="translate(1.894 -203.82026) rotate(17.87894)"/><rect class="cls-9" x="179.21381" y="543.58957" width="35.48358" height="2.31415" rx="0.75" ry="0.75" transform="translate(3.40064 -203.08098) rotate(17.87894)"/><rect class="cls-3" x="386.40777" y="168.54473" width="1.48442" height="29.20973" rx="0.48109" ry="0.48109" transform="translate(-115.81038 -259.24426) rotate(14.3646)"/><rect class="cls-8" x="380.97254" y="185.28299" width="3.75867" height="29.20973" rx="1.21816" ry="1.21816" transform="translate(-111.79213 -257.65465) rotate(14.3646)"/><rect class="cls-10" x="374.18261" y="205.75848" width="6.7791" height="29.20973" rx="2.19706" ry="2.19706" transform="translate(-106.87751 -255.70455) rotate(14.36458)"/><rect class="cls-9" x="179.21381" y="543.58957" width="35.48358" height="2.31415" rx="0.75" ry="0.75" transform="translate(3.40064 -203.08098) rotate(17.87894)"/><rect class="cls-9" x="177.55607" y="548.72848" width="35.48358" height="2.31415" rx="0.75" ry="0.75" transform="translate(4.89826 -202.32387) rotate(17.87894)"/><rect class="cls-9" x="175.95951" y="553.88713" width="35.48358" height="2.31415" rx="0.75" ry="0.75" transform="translate(6.4049 -201.58459) rotate(17.87894)"/><rect class="cls-3" x="357.73079" y="222.24562" width="23.52715" height="39.72618" rx="4.47302" ry="4.47302" transform="translate(-101.73523 -253.02068) rotate(14.36458)"/><rect class="cls-1" x="360.43063" y="221.08855" width="23.52715" height="39.72618" rx="4.47302" ry="4.47302" transform="translate(-101.93788 -253.72666) rotate(14.36458)"/><circle class="cls-3" cx="198.90665" cy="71.96581" r="7.84238"/><rect class="cls-3" x="360.45974" y="237.47072" width="23.52715" height="6.73451" transform="translate(-101.96517 -253.73744) rotate(14.36458)"/><circle class="cls-11" cx="225.10017" cy="49.82989" r="1.39962"/><path class="cls-8" d="M351.89849,316.68957a8.97816,8.97816,0,0,0-4.92374-5.89342l-28.40984-13.08858a9.01285,9.01285,0,0,0-11.92213,4.40171L280.219,359.46441a8.93566,8.93566,0,0,0-.41054,6.38674c0.05343,0.17383.10421,0.34843,0.16793,0.51873l0.54264,1.16654a8.91623,8.91623,0,0,0,4.10164,3.85012l28.40984,13.08854a9.01284,9.01284,0,0,0,11.92213-4.40167l26.4238-57.35513A8.93718,8.93718,0,0,0,351.89849,316.68957Z" transform="translate(-173.35184 -168.92155)"/><path class="cls-2" d="M350.87,313.86117a8.97816,8.97816,0,0,0-4.92374-5.89342L317.5364,294.87917a9.01285,9.01285,0,0,0-11.92213,4.40171L279.19047,356.636a8.93566,8.93566,0,0,0-.41054,6.38674c0.05343,0.17383.10421,0.34843,0.16793,0.51873l0.54264,1.16654a8.91623,8.91623,0,0,0,4.10164,3.85012L312.002,381.64668A9.01284,9.01284,0,0,0,323.9241,377.245l26.4238-57.35513A8.93718,8.93718,0,0,0,350.87,313.86117Z" transform="translate(-173.35184 -168.92155)"/><circle class="cls-4" cx="161.81603" cy="150.06825" r="9.1923"/><circle class="cls-5" cx="161.81603" cy="149.93968" r="7.52098"/><circle class="cls-6" cx="164.96584" cy="145.76136" r="1.67133"/><circle class="cls-6" cx="166.12291" cy="148.97545" r="0.89995"/><rect class="cls-4" x="279.14001" y="364.62738" width="45.0916" height="2.57127" transform="translate(7.67629 -261.64606) rotate(24.76539)"/><rect class="cls-4" x="281.71128" y="359.22771" width="45.0916" height="2.57127" transform="translate(5.65082 -263.21978) rotate(24.76539)"/><rect class="cls-4" x="284.15399" y="353.82803" width="45.0916" height="2.57127" transform="translate(3.61353 -264.73965) rotate(24.76539)"/><rect class="cls-4" x="286.5967" y="348.68548" width="45.0916" height="2.57127" transform="translate(1.68396 -266.23586) rotate(24.76539)"/><rect class="cls-4" x="294.63249" y="321.8663" width="19.8808" height="17.60161" transform="translate(-6.82283 -266.09701) rotate(24.76539)"/><rect class="cls-5" x="296.40276" y="323.12535" width="16.6756" height="14.76386" transform="translate(-6.87436 -266.18195) rotate(24.76539)"/><circle class="cls-6" cx="137.19608" cy="158.74629" r="1.67133"/><circle class="cls-6" cx="138.35315" cy="161.96039" r="0.89995"/><circle class="cls-4" cx="144.26708" cy="173.65968" r="1.67133"/><circle class="cls-4" cx="149.5382" cy="176.10239" r="1.67133"/><circle class="cls-4" cx="154.68074" cy="178.67367" r="1.67133"/><circle class="cls-4" cx="146.83836" cy="168.51713" r="1.67133"/><circle class="cls-4" cx="152.10947" cy="170.95984" r="1.67133"/><circle class="cls-4" cx="157.25202" cy="173.53112" r="1.67133"/><circle class="cls-4" cx="149.1525" cy="163.63171" r="1.67133"/><circle class="cls-4" cx="154.42362" cy="166.07442" r="1.67133"/><circle class="cls-4" cx="159.56616" cy="168.6457" r="1.67133"/><rect class="cls-8" x="223.05263" y="382.9041" width="103.59267" height="2.57127" transform="translate(12.8643 -248.72311) rotate(24.76539)"/><rect class="cls-8" x="219.71193" y="389.99832" width="103.5501" height="2.57127" transform="translate(15.5269 -246.66232) rotate(24.76539)"/><path class="cls-3" d="M332.56445,527.14852c2.16087-6.73792-49.88258-23.07231-52.04347-16.33439l0.75745-7.12459c2.25972-7.046,56.79876,10.44492,54.539,17.49094Z" transform="translate(-173.35184 -168.92155)"/><path class="cls-3" d="M267.059,493.74221c3.08017-5.07867-39.57972-30.3004-42.6599-25.22172l1.738-4.97267c3.47632-5.7315,47.79356,21.14756,44.31725,26.87907Z" transform="translate(-173.35184 -168.92155)"/><ellipse class="cls-3" cx="282.77817" cy="282.79911" rx="10.67079" ry="9.8994" transform="matrix(0.99998, -0.00598, 0.00598, 0.99998, -175.03675, -167.22667)"/><path class="cls-1" d="M284.02576,270.246c-12.65229.0693-12.55652,17.57069,0.09576,17.50139a47.00386,47.00386,0,0,0,35.51785-11.8665,38.45341,38.45341,0,0,0,7.53745-9.33361l-16.84291-7.75968c-0.07448.12834-.13635,0.25226-0.21224,0.38108C302.99054,271.10738,284.02576,270.246,284.02576,270.246Z" transform="translate(-173.35184 -168.92155)"/><path class="cls-1" d="M341.99675,233.04582c-1.07251-11.72582-19.52467-10.03823-18.45225,1.68768,0,0,.94775,11.725-7.71448,26.6575l16.84291,7.75968C341.84712,253.6075,341.99675,233.04582,341.99675,233.04582Z" transform="translate(-173.35184 -168.92155)"/><ellipse class="cls-3" cx="160.08042" cy="63.48061" rx="9.8994" ry="10.67079"/><path class="cls-1" d="M291.64906,277.78513s-1.79989-18.89886,9.77084-26.61268c14.65626-9.64228,26.61268-9.25659,26.61268-9.25659,11.76459,0.49021,12.536-18.023.77138-18.51317,0,0-30.66244,1.73561-44.54732,19.09171a47.00391,47.00391,0,0,0-10.09225,36.06211C274.722,291.1967,292.2067,290.42532,291.64906,277.78513Z" transform="translate(-173.35184 -168.92155)"/><path class="cls-8" d="M291.77766,277.91369s-1.79992-18.89886,9.77081-26.61268c14.65626-9.64228,26.61268-9.25659,26.61268-9.25659,7.4996,0.31253,10.52345-7.09423,8.68878-12.63487-9.58116,1.14012-34.048,2.34969-45.32945,14.30618s-9.47917,31.509-8.2849,44.06349C287.68289,287.69,292.06109,284.33871,291.77766,277.91369Z" transform="translate(-173.35184 -168.92155)"/></svg>