<svg id="Layer_1" data-name="Layer 1" xmlns="http://www.w3.org/2000/svg" viewBox="0 0 72.87846 119.39559"><defs><style>.cls-1{fill:#d9dad9;}.cls-2{fill:#787879;}</style></defs><title>left-hand</title><path class="cls-1" d="M319.04809,453.48439c-6.22407-4.04815-21.135-16.84-25.23717-24.22714s-8.21616-32.82767-8.21616-32.82767l22.67607-16.408s5.52988,22.46937,12.08072,30.5032,12.4261,7.85673,18.06736,13.27222C347.25315,429.54285,327.88233,459.23021,319.04809,453.48439Z" transform="translate(-267.79549 -334.82299)"/><path class="cls-2" d="M276.43559,345.58751c2.54359,3.06009,9.52026,11.20372,9.52026,11.20372s-3.447-15.06019-3.98095-18.07771c-0.71013-4.4277,5.14259-5.47512,5.85278-1.04748,0.676,3.10293,5.83245,17.21684,5.83245,17.21684s-0.61927-12.122-.5729-16.6525,5.41947-4.30775,5.76553-.02545c0.32875,4.067,2.73818,19.243,2.97981,20.76023,0.27259-1.06877,6.00719-8.03688,8.99212-9.025,3.603-1.19273,5.42771,3.10713,2.17279,5.082a14.1431,14.1431,0,0,0-5.69888,7.98019c-1.0105,3.52051,1.01808,9.35624,1.01808,9.35624,4.66842,12.53524,13.46875,27.3021,7.362,30.22694-3.24623-9.0959-27.74878,2.51175-26.77338,11.31357-6.65317,2.15346-5.75021-18.16279-7.20062-33.95484a36.1486,36.1486,0,0,0-.99518-5.53405c-0.68065-2.30255-.91993-4.9941-1.94362-6.31126s-9.97717-6.40395-9.97717-6.40395c-2.41734-1.45231.03945-5.48684,2.45679-4.03453l9.87521,4.30541s-8.68623-11.841-9.73617-13.83879S273.892,342.52742,276.43559,345.58751Z" transform="translate(-267.79549 -334.82299)"/></svg>