<svg id="Layer_2" data-name="Layer 2" xmlns="http://www.w3.org/2000/svg" xmlns:xlink="http://www.w3.org/1999/xlink" viewBox="0 0 662.71217 374.44936"><defs><style>.cls-1,.cls-10,.cls-19,.cls-26,.cls-5{fill:none;}.cls-2{fill:#86d0e7;}.cls-3{fill:#169ab6;}.cls-4{fill:#e7e7e7;}.cls-5{stroke:#169ab6;}.cls-10,.cls-13,.cls-18,.cls-19,.cls-25,.cls-26,.cls-5{stroke-miterlimit:10;}.cls-10,.cls-13,.cls-5{stroke-width:2px;}.cls-6{clip-path:url(#clip-path);}.cls-7{fill:#4a9eb6;}.cls-8{fill:#006682;}.cls-9{fill:#b5b5b5;}.cls-10{stroke:#006682;}.cls-11,.cls-23,.cls-24{fill:#fff;}.cls-12{fill:#787879;}.cls-13{fill:#2786c0;stroke:#787879;}.cls-14{fill:#d9dad9;}.cls-15{clip-path:url(#clip-path-2);}.cls-16{fill:#a7a6a7;}.cls-17{fill:#434343;}.cls-18,.cls-19,.cls-25,.cls-26{stroke:#fff;}.cls-18{fill:url(#Безымянный_градиент_5);}.cls-20,.cls-21,.cls-22{fill:#c0e6ee;}.cls-21,.cls-23{opacity:0.38;}.cls-22,.cls-24{opacity:0.13;}.cls-25{fill:url(#Безымянный_градиент_5-2);}.cls-26{stroke-width:0.75px;}</style><clipPath id="clip-path" transform="translate(28.86089 -233.86822)"><rect class="cls-1" x="281.79895" y="363.70139" width="267.74852" height="267.74852" transform="translate(473.58698 -148.18881) rotate(45)"/></clipPath><clipPath id="clip-path-2" transform="translate(28.86089 -233.86822)"><rect class="cls-1" x="401.24579" y="530.93205" width="16.0366" height="66.93537" transform="translate(-242.02118 315.65961) rotate(-33.14999)"/></clipPath><linearGradient id="Безымянный_градиент_5" x1="8.57463" y1="163.81609" x2="144.17613" y2="163.81609" gradientUnits="userSpaceOnUse"><stop offset="0" stop-color="#fff"/><stop offset="0.02263" stop-color="#f5fcfd"/><stop offset="0.0609" stop-color="#dbf5f7"/><stop offset="0.11016" stop-color="#afeaee"/><stop offset="0.16846" stop-color="#74dae1"/><stop offset="0.23366" stop-color="#28c7d2"/><stop offset="0.26601" stop-color="#00bcc9"/><stop offset="0.30938" stop-color="#019ba9"/><stop offset="0.36526" stop-color="#037887"/><stop offset="0.42675" stop-color="#045a6a"/><stop offset="0.49419" stop-color="#054252"/><stop offset="0.5699" stop-color="#062f40"/><stop offset="0.65866" stop-color="#072233"/><stop offset="0.77258" stop-color="#071a2b"/><stop offset="1" stop-color="#071829"/></linearGradient><linearGradient id="Безымянный_градиент_5-2" x1="510.25442" y1="184.10452" x2="649.16055" y2="184.10452" xlink:href="#Безымянный_градиент_5"/></defs><title>logo</title><circle class="cls-2" cx="352.86705" cy="168.52456" r="110.83333"/><path class="cls-3" d="M300.50615,479.22611c2.33333-4.66667-12.66667-4.33331-27,.33334s-27.0394-1.10779-9.66667-6.66669c3.434-1.09882,33.08223.958,30.66667-3.66666-1.44385-2.76428-8.33333-7,6-10s-1-10-12.33333-7.33333-14.16667-2.83333-10.83333-9.16667,17.83333-4.83333,24.83333-.16667,11,16.33333,15.66667,18,0.66667-15,11-7.33333-5.33333,21.66667,8.66667,16.33333,10.66667-30.66667,23.66667-34.33333-1.33333,12.33333,8.66667,7.66667,26.33333,2,12.66667,7-19,13.66666-16.66667,16.66666,12.33333-6.33333,16-1.33333-5.66667,12-9.66667,13.33333-9.66667-5-15.33333-2.33333-14,6.33333-13.66667,15.66667-16.33333-1.66667-22,4-20,2.33333-26.33333-3.66667S298.17282,483.89277,300.50615,479.22611Z" transform="translate(28.86089 -233.86822)"/><ellipse class="cls-3" cx="361.17282" cy="304.39277" rx="2.83333" ry="6" transform="translate(-6.14907 327.70149) rotate(-73.11295)"/><ellipse class="cls-3" cx="286.92594" cy="307.38587" rx="15.3246" ry="2.83333" transform="translate(-78.24333 -73.29107) rotate(-26.53719)"/><ellipse class="cls-3" cx="361.18596" cy="491.73704" rx="10.62889" ry="4.78581" transform="translate(-144.10782 -36.98606) rotate(-24.80351)"/><path class="cls-3" d="M421.83949,399.55944c-3.33333,2.66667-3-12.33333,0-12.33333s4.66667,4.33333,5,8.66667,1.66667,10,1.33333,12-0.33333,5-5.33333,6S425.17282,396.89277,421.83949,399.55944Z" transform="translate(28.86089 -233.86822)"/><path class="cls-3" d="M386.83949,477.89278c-2-8.33334,30.66667-55.66669,37-56s-13,17.66667-9.66667,24.66667-14.33333,13.33333-15.33333,21S388.83949,486.22613,386.83949,477.89278Z" transform="translate(28.86089 -233.86822)"/><path class="cls-3" d="M400.46449,332.12192c-3.75-2.25-3.25-4.5-6.5-8s-11.5-6.5-18-4.5-7.25,6.25-9,.5-12.5-7.5-12.5-7.5c-21.1084-.96246-23,5.5-12,9s-19,18.5-22.5,10,10.5-20-2.25-18.25-4.5,16-9,20.5-19.875-8.125-18.875.875,8.625,7.375,8.625,7.375,13-1.5,8.5,5.5-17-1.5-17,12,10,3,13.25,10.25,1.75,10.75,6.25,13.25-5-10.5,3.5-9.5,17,9.5,18,4-14-6.5-14-13,3.5-11.5,14-10,18.5,18.5,11.5,19.5-8.6507,8.63019-7.5,11.5c-2.47815.71967-4.74146,1.77832-5,6-7.09338.05872-9,7.5-9,13s7,6.25,8-2.75,10.25-9,12.875-3.875,3.375,21.375-1.375,29.125-0.79163,8.45831-5.54163,5.20831-10.04169-3.79163-13.29169-.04163-2.20831,10.54163,1.91669,13.41663,8.66663,2.66669,11.91663,2.13263,3.25-6.96594,12.75-8.46594,1.25-18.25,7.75-23.25,0.75,18.75,22.5-3c-7.25,34.75,35.25,35.25,32-7,8.73376-9.63257,3.20795-16.91144-6.5-23.5,0.39233-6.15424-1.1983-13.34534-7.5-23,0,0-3.75-13,5-11s5.06952,13.52136,8,21.5c4.15509-3.123,5.97681-1.59851,5,5.5,0,0,3.75,9.5,6,8.5s1.5-4.5,1.5-4.5c-4.264-9.523-4.5343-16.88507-2.5-23l3.97327-3.25085a110.95441,110.95441,0,0,0-14.48724-22.21948C406.09016,332.594,402.74092,333.48777,400.46449,332.12192Z" transform="translate(28.86089 -233.86822)"/><path class="cls-4" d="M292.45684,452.89235a4.108,4.108,0,0,0-3.70361,2.28021,3.40043,3.40043,0,0,0-1.99481-.62042,2.83782,2.83782,0,0,0-2.8595,1.78857c-12.70685-2.33057-23.95221-5.46625-31.39276-10.69794,1.12909-2.64313,7.15527-3.62555,13.5-4.5-7.48553-1.55493-14.903-2.8042-21.25.75-3.30066-3.234-2.97546-9.2121-1.25-16.25-2.57361,5.13257-4.55438,10.06952-5,14.5-3.44739-3.8205-4.84344-20.6087-6.5-35.75,0.2821,16.77515.54846,33.59174,4,42a25.80294,25.80294,0,0,0,3.75,17c-1.316-4.5769-2.3595-8.93323-1.5-11.75,3.79645,8.28418,7.57758,16.145,11.25,21-2.09283-4.1983-3.72186-8.20337-4.25-11.75,4.29218,5.0968,12.92456,10.95123,22.35181,16.94458-0.03192.04718-.07513,0.08374-0.10449,0.13324-1.03265,1.742-.04034,4.23859,2.21631,5.57629s4.92316,1.01,5.95575-.732,0.04034-4.23859-2.21631-5.57629c-2.08539-1.23621-4.504-1.03412-5.67651.37592-10.88007-8.06909-19.5307-16.29944-20.52655-25.47174a28.50424,28.50424,0,0,0,13.5,9c-4.89734-3.18384-8.918-6.62817-11.5-10.5,9.45038,3.63287,21.43311,5.31049,34.59082,6.081-0.00116.02557-.00989,0.04944-0.00995,0.0752-0.0022,1.24377,1.30219,2.25433,2.91339,2.2572a3.41481,3.41481,0,0,0,1.933-.57275,4.11183,4.11183,0,0,0,3.75928,2.4082A4.00111,4.00111,0,1,0,292.45684,452.89235Z" transform="translate(28.86089 -233.86822)"/><circle class="cls-4" cx="260.95038" cy="164.60789" r="2.08333"/><path class="cls-4" d="M304.92284,428.89277a4.84276,4.84276,0,0,0-.59424.05994,6.4143,6.4143,0,1,0-12.65576-1.47662c0,0.12775.01172,0.2525,0.0191,0.37842a1.97825,1.97825,0,0,0-2.679,1.80408,3.48359,3.48359,0,0,0-6.17,2.20056,4.88712,4.88712,0,1,0,.49658,2.11694c0-.12891-0.0282-0.24994-0.038-0.3764a3.47939,3.47939,0,0,0,6.47766-2.30487,1.98136,1.98136,0,0,0,2.86859-.43011,6.40723,6.40723,0,0,0,7.38013,2.72845c-0.00323.07324-.02179,0.14221-0.02179,0.21625A4.91669,4.91669,0,1,0,304.92284,428.89277Z" transform="translate(28.86089 -233.86822)"/><ellipse class="cls-4" cx="356.03371" cy="68.69122" rx="6.33333" ry="4.33333"/><circle class="cls-4" cx="400.95038" cy="117.60789" r="4.41667"/><path class="cls-4" d="M381.08953,366.0594a4.07478,4.07478,0,0,0-4.06659,3.91681,1.74663,1.74663,0,0,0-3.14142.62634,3.90191,3.90191,0,0,0-6.783,3.37079,7.89774,7.89774,0,0,0-10.9209,1.87219,3.25946,3.25946,0,1,0-1.45435,3.7583,7.89729,7.89729,0,0,0,7.86621,8.78894l0.01154-.00061a6.66514,6.66514,0,1,0,7.2533-4.77295,7.89432,7.89432,0,0,0-.24915-6.80341,3.85557,3.85557,0,0,0,5.1712-4.29883,1.72489,1.72489,0,0,0,2.47644-1.02362A4.07635,4.07635,0,1,0,381.08953,366.0594Z" transform="translate(28.86089 -233.86822)"/><path class="cls-4" d="M253.173,356.54378c0,1.9906-4.33337.91571-6.66675,5.62451s2.985,3.6889,4.88281,5.59161c-1.02148,3.77942-5.63287,7.63287-6.63281,23.70056,1.58337-11.75,8.11215-19.48709,9.07034-19.26309s-9.6954,36.9454-6.3204,54.013c0,0,1.94543-26.94531,5.47278-22.806s5.694-20.694,8.194-19.86066,1.49994,29.33337,10,49.66663c-5.6369-19.17078-7.02228-35.74487-2-49.66663,0,0,3.83331,24.33331,11.49994,22.5s-4-18-3.83331-20.16669,3.83337-1.5,5.33337,0c1.0979,1.098,12.447,13.0285,23.88971,22.91895a5.18208,5.18208,0,0,0,4.83069,8.50006,9.19234,9.19234,0,1,0,4.36517-4.36517,5.21308,5.21308,0,0,0-7.87689-5.28058c-5.99207-4.60443-22.44348-24.978-22.12543-27.52319,0.33331-2.66663,4.25012-.91675,4.91675-4.91675s-0.00006-11.99994-5.00006-13.66663-2.18451-8-2.18451-8c2.55792-3.73871,24.24512-7.9,31.93451-3.58331-6.25269-4.13092-19.34412-7.708-33.41669-.25a10.63364,10.63364,0,0,0-2.15057-3.1394c3.13574-6.35345,8.27271-12.54065,13.81732-18.694-5.71185,4.57159-11.35608,9.27393-15.32812,17.21051a15.04321,15.04321,0,0,0-1.38312-1.04156c1.22839-7.53741,5.53528-15.7569,10.71124-24.16895-5.54645,6.537-10.76611,13.38013-13.203,22.8302a14.94192,14.94192,0,0,0-10.00128-.55505c-2.39331-4.26434-7.44189-8.72217-13.79572-13.27515,5.05872,5.114,9.69061,10.123,11.12457,14.34491a15.05071,15.05071,0,0,0-5.39655,4.71277c-8.46527-6.46631-16.06226-7.68585-23.502-7.95477q-1.3624,1.99622-2.6369,4.05536c9.39673,0.04675,17.1344,2.3349,23.9043,8.75159A14.97666,14.97666,0,0,0,253.173,356.54378Z" transform="translate(28.86089 -233.86822)"/><circle class="cls-5" cx="296.86705" cy="122.52456" r="5.5"/><circle class="cls-3" cx="345.95038" cy="190.77456" r="3.83333"/><circle class="cls-3" cx="329.36705" cy="191.02456" r="1.91667"/><circle class="cls-3" cx="396.20038" cy="158.52456" r="3"/><ellipse class="cls-3" cx="240.17282" cy="447.55944" rx="2.33333" ry="3" transform="translate(-143.95851 -81.99418) rotate(-26.17966)"/><g class="cls-6"><circle class="cls-7" cx="352.86559" cy="168.52054" r="110.83333"/><path class="cls-8" d="M300.5047,479.22209c2.33333-4.66667-12.66667-4.33331-27,.33334s-27.0394-1.10779-9.66667-6.66669c3.434-1.09882,33.08223.958,30.66667-3.66666-1.44385-2.76428-8.33333-7,6-10s-1-10-12.33333-7.33333-14.16667-2.83333-10.83333-9.16667,17.83333-4.83333,24.83333-.16667,11,16.33333,15.66667,18,0.66667-15,11-7.33333-5.33333,21.66667,8.66667,16.33333,10.66667-30.66667,23.66667-34.33333-1.33333,12.33333,8.66667,7.66667,26.33333,2,12.66667,7-19,13.66666-16.66667,16.66666,12.33333-6.33333,16-1.33333-5.66667,12-9.66667,13.33333-9.66667-5-15.33333-2.33333-14,6.33333-13.66667,15.66667-16.33333-1.66667-22,4-20,2.33333-26.33333-3.66667S298.17137,483.88876,300.5047,479.22209Z" transform="translate(28.86089 -233.86822)"/><ellipse class="cls-8" cx="361.17137" cy="304.38876" rx="2.83333" ry="6" transform="translate(-6.14625 327.69725) rotate(-73.11295)"/><ellipse class="cls-8" cx="286.92449" cy="307.38185" rx="15.3246" ry="2.83333" transform="translate(-78.24168 -73.29214) rotate(-26.53719)"/><ellipse class="cls-8" cx="361.1845" cy="491.73302" rx="10.62889" ry="4.78581" transform="translate(-144.10627 -36.98704) rotate(-24.80351)"/><path class="cls-8" d="M421.838,399.55542c-3.33333,2.66667-3-12.33333,0-12.33333s4.66667,4.33333,5,8.66667,1.66667,10,1.33333,12-0.33333,5-5.33333,6S425.17137,396.88876,421.838,399.55542Z" transform="translate(28.86089 -233.86822)"/><path class="cls-8" d="M386.838,477.88877c-2-8.33334,30.66667-55.66669,37-56s-13,17.66667-9.66667,24.66667-14.33333,13.33333-15.33333,21S388.838,486.22211,386.838,477.88877Z" transform="translate(28.86089 -233.86822)"/><path class="cls-8" d="M400.463,332.1179c-3.75-2.25-3.25-4.5-6.5-8s-11.5-6.5-18-4.5-7.25,6.25-9,.5-12.5-7.5-12.5-7.5c-21.1084-.96246-23,5.5-12,9s-19,18.5-22.5,10,10.5-20-2.25-18.25-4.5,16-9,20.5-19.875-8.125-18.875.875,8.625,7.375,8.625,7.375,13-1.5,8.5,5.5-17-1.5-17,12,10,3,13.25,10.25,1.75,10.75,6.25,13.25-5-10.5,3.5-9.5,17,9.5,18,4-14-6.5-14-13,3.5-11.5,14-10,18.5,18.5,11.5,19.5-8.6507,8.63019-7.5,11.5c-2.47815.71967-4.74146,1.77832-5,6-7.09338.05872-9,7.5-9,13s7,6.25,8-2.75,10.25-9,12.875-3.875,3.375,21.375-1.375,29.125-0.79163,8.45831-5.54163,5.20831-10.04169-3.79163-13.29169-.04163-2.20831,10.54163,1.91669,13.41663,8.66663,2.66669,11.91663,2.13263,3.25-6.96594,12.75-8.46594,1.25-18.25,7.75-23.25,0.75,18.75,22.5-3c-7.25,34.75,35.25,35.25,32-7,8.73376-9.63257,3.20795-16.91144-6.5-23.5,0.39233-6.15424-1.1983-13.34534-7.5-23,0,0-3.75-13,5-11s5.06952,13.52136,8,21.5c4.15509-3.123,5.97681-1.59851,5,5.5,0,0,3.75,9.5,6,8.5s1.5-4.5,1.5-4.5c-4.264-9.523-4.5343-16.88507-2.5-23l3.97327-3.25085a110.95442,110.95442,0,0,0-14.48724-22.21948C406.08871,332.58995,402.73946,333.48375,400.463,332.1179Z" transform="translate(28.86089 -233.86822)"/><path class="cls-9" d="M292.45539,452.88833a4.108,4.108,0,0,0-3.70361,2.28021,3.40043,3.40043,0,0,0-1.99481-.62042,2.83782,2.83782,0,0,0-2.8595,1.78857c-12.70685-2.33057-23.95221-5.46625-31.39276-10.69794,1.12909-2.64313,7.15527-3.62555,13.5-4.5-7.48553-1.55493-14.903-2.8042-21.25.75-3.30066-3.234-2.97546-9.2121-1.25-16.25-2.57361,5.13257-4.55438,10.06952-5,14.5-3.44739-3.8205-4.84344-20.6087-6.5-35.75,0.2821,16.77515.54846,33.59174,4,42a25.80294,25.80294,0,0,0,3.75,17c-1.316-4.5769-2.3595-8.93323-1.5-11.75,3.79645,8.28418,7.57758,16.145,11.25,21-2.09283-4.1983-3.72186-8.20337-4.25-11.75,4.29218,5.0968,12.92456,10.95123,22.35181,16.94458-0.03192.04718-.07513,0.08374-0.10449,0.13324-1.03265,1.742-.04034,4.23859,2.21631,5.57629s4.92316,1.01,5.95575-.732,0.04034-4.23859-2.21631-5.57629c-2.08539-1.23621-4.504-1.03412-5.67651.37592-10.88007-8.06909-19.5307-16.29944-20.52655-25.47174a28.50424,28.50424,0,0,0,13.5,9c-4.89734-3.18384-8.918-6.62817-11.5-10.5,9.45038,3.63287,21.43311,5.31049,34.59082,6.081-0.00116.02557-.00989,0.04944-0.00995,0.0752-0.0022,1.24377,1.30219,2.25433,2.91339,2.2572a3.41481,3.41481,0,0,0,1.933-.57275,4.11183,4.11183,0,0,0,3.75928,2.4082A4.00111,4.00111,0,1,0,292.45539,452.88833Z" transform="translate(28.86089 -233.86822)"/><circle class="cls-9" cx="260.94893" cy="164.60387" r="2.08333"/><path class="cls-9" d="M304.92139,428.88876a4.84276,4.84276,0,0,0-.59424.05994,6.4143,6.4143,0,1,0-12.65576-1.47662c0,0.12775.01172,0.2525,0.0191,0.37842a1.97825,1.97825,0,0,0-2.679,1.80408,3.48359,3.48359,0,0,0-6.17,2.20056,4.88712,4.88712,0,1,0,.49658,2.11694c0-.12891-0.0282-0.24994-0.038-0.3764a3.47939,3.47939,0,0,0,6.47766-2.30487,1.98136,1.98136,0,0,0,2.86859-.43011,6.40723,6.40723,0,0,0,7.38013,2.72845c-0.00323.07324-.02179,0.14221-0.02179,0.21625A4.91669,4.91669,0,1,0,304.92139,428.88876Z" transform="translate(28.86089 -233.86822)"/><ellipse class="cls-9" cx="356.03226" cy="68.68721" rx="6.33333" ry="4.33333"/><circle class="cls-9" cx="400.94893" cy="117.60387" r="4.41667"/><path class="cls-9" d="M381.08808,366.05538a4.07478,4.07478,0,0,0-4.06659,3.91681,1.74663,1.74663,0,0,0-3.14142.62634,3.90191,3.90191,0,0,0-6.783,3.37079,7.89774,7.89774,0,0,0-10.9209,1.87219,3.25946,3.25946,0,1,0-1.45435,3.7583,7.89729,7.89729,0,0,0,7.86621,8.78894l0.01154-.00061a6.66514,6.66514,0,1,0,7.2533-4.77295,7.89432,7.89432,0,0,0-.24915-6.80341,3.85557,3.85557,0,0,0,5.1712-4.29883,1.72489,1.72489,0,0,0,2.47644-1.02362A4.07635,4.07635,0,1,0,381.08808,366.05538Z" transform="translate(28.86089 -233.86822)"/><path class="cls-9" d="M253.17151,356.53976c0,1.9906-4.33337.91571-6.66675,5.62451s2.985,3.6889,4.88281,5.59161c-1.02148,3.77942-5.63287,7.63287-6.63281,23.70056,1.58337-11.75,8.11215-19.48709,9.07034-19.26309s-9.6954,36.9454-6.3204,54.013c0,0,1.94543-26.94531,5.47278-22.806s5.694-20.694,8.194-19.86066,1.49994,29.33337,10,49.66663c-5.6369-19.17078-7.02228-35.74487-2-49.66663,0,0,3.83331,24.33331,11.49994,22.5s-4-18-3.83331-20.16669,3.83337-1.5,5.33337,0c1.0979,1.098,12.447,13.0285,23.88971,22.91895a5.18208,5.18208,0,0,0,4.83069,8.50006,9.19234,9.19234,0,1,0,4.36517-4.36517,5.21308,5.21308,0,0,0-7.87689-5.28058c-5.99207-4.60443-22.44348-24.978-22.12543-27.52319,0.33331-2.66663,4.25012-.91675,4.91675-4.91675s-0.00006-11.99994-5.00006-13.66663-2.18451-8-2.18451-8c2.55792-3.73871,24.24512-7.9,31.93451-3.58331-6.25269-4.13092-19.34412-7.708-33.41669-.25a10.63364,10.63364,0,0,0-2.15057-3.1394c3.13574-6.35345,8.27271-12.54065,13.81732-18.694-5.71185,4.57159-11.35608,9.27393-15.32812,17.21051a15.04321,15.04321,0,0,0-1.38312-1.04156c1.22839-7.53741,5.53528-15.7569,10.71124-24.16895-5.54645,6.537-10.76611,13.38013-13.203,22.8302a14.94192,14.94192,0,0,0-10.00128-.55505c-2.39331-4.26434-7.44189-8.72217-13.79572-13.27515,5.05872,5.114,9.69061,10.123,11.12457,14.34491a15.0507,15.0507,0,0,0-5.39655,4.71277c-8.46527-6.46631-16.06226-7.68585-23.502-7.95477q-1.3624,1.99622-2.6369,4.05536c9.39673,0.04675,17.1344,2.3349,23.9043,8.75159A14.97666,14.97666,0,0,0,253.17151,356.53976Z" transform="translate(28.86089 -233.86822)"/><circle class="cls-10" cx="296.86559" cy="122.52054" r="5.5"/><circle class="cls-8" cx="345.94893" cy="190.77054" r="3.83333"/><circle class="cls-8" cx="329.36559" cy="191.02054" r="1.91667"/><circle class="cls-8" cx="396.19893" cy="158.52054" r="3"/><ellipse class="cls-8" cx="240.17137" cy="447.55542" rx="2.33333" ry="3" transform="translate(-143.95689 -81.99523) rotate(-26.17966)"/></g><path class="cls-11" d="M355.94011,517.25241l0.94455,1.23514c0.62689,0.81158,1.55716,2.01587,2.77051,3.5867,2.45065,3.12146,6.06223,7.69177,10.93228,13.27228a155.01985,155.01985,0,0,0,18.95538,18.72614,59.42433,59.42433,0,0,0,6.49658,4.53885,32.16792,32.16792,0,0,0,3.66321,1.86685,17.07081,17.07081,0,0,0,3.98151,1.22946,9.34217,9.34217,0,0,0,4.13281-.13,5.01818,5.01818,0,0,0,.97382-0.35794l0.2395-.10248a1.3606,1.3606,0,0,0,.21161-0.11838l0.48175-.29022c0.311-.19934.54-0.41669,0.81537-0.62851,0.241-.25986.51422-0.48795,0.73358-0.77222,1.83679-2.23239,2.64258-5.29239,3.06555-8.35834a52.11869,52.11869,0,0,0,.22858-9.59634c-0.18359-3.27408-.567-6.6037-1.0874-9.9718a206.7986,206.7986,0,0,0-4.41791-20.65851c-3.69617-14.04507-8.604-28.584-14.16321-43.431a832.004,832.004,0,0,0-40.99527-90.48743c-15.61432-30.01152-32.77908-59.26184-50.92059-85.27419-9.10916-12.9665-18.38525-25.20343-28.191-35.89825a119.43362,119.43362,0,0,0-15.37689-14.38022,39.57793,39.57793,0,0,0-8.5159-5.05914,15.03309,15.03309,0,0,0-4.56088-1.14312,7.40492,7.40492,0,0,0-4.30289.87565,7.10064,7.10064,0,0,0-1.72263,1.375,9.04386,9.04386,0,0,0-1.2923,1.79067,15.63589,15.63589,0,0,0-1.55862,4.16526,38.56931,38.56931,0,0,0-.90228,8.71725,101.7361,101.7361,0,0,0,1.47861,16.28575,242.97662,242.97662,0,0,0,5.9046,26.02488c1.99271,7.13442,3.75482,12.68517,4.98032,16.46038,1.24606,3.76917,1.91064,5.7794,1.91064,5.7794s-0.6936-2.00058-1.99408-5.75166c-1.28018-3.758-3.1228-9.28392-5.22034-16.39552A243.47072,243.47072,0,0,1,237.325,268.3794a102.52923,102.52923,0,0,1-1.7262-16.40458,38.1941,38.1941,0,0,1,.84113-8.96194,16.67652,16.67652,0,0,1,1.6312-4.4531,10.13253,10.13253,0,0,1,1.42767-2.00943,7.96807,7.96807,0,0,1,1.94635-1.58379,8.521,8.521,0,0,1,4.96628-1.07918,16.19137,16.19137,0,0,1,4.93216,1.18613,40.75918,40.75918,0,0,1,8.83826,5.14586,120.724,120.724,0,0,1,15.67859,14.42026,337.38059,337.38059,0,0,1,28.54239,35.89488c9.144,13.01534,18.018,26.8553,26.58862,41.17929,8.56662,14.328,16.83347,29.13786,24.68445,44.17044a833.86422,833.86422,0,0,1,40.84415,90.80016,426.64167,426.64167,0,0,1,13.94757,43.67581,208.11367,208.11367,0,0,1,4.27887,20.83243c0.49768,3.40317.85858,6.77264,1.01831,10.09839a53.24288,53.24288,0,0,1-.31586,9.81131c-0.47156,3.16553-1.30322,6.38519-3.37994,8.88385-0.24908.31454-.56085,0.57825-0.83844,0.86655a11.84413,11.84413,0,0,1-.98041.73862l-0.48407.28632a2.2819,2.2819,0,0,1-.27875.15256l-0.27594.11737a5.96312,5.96312,0,0,1-1.12024.40189,10.153,10.153,0,0,1-4.57477.09744,17.9757,17.9757,0,0,1-4.16907-1.34988,33.01493,33.01493,0,0,1-3.73572-1.97128,60.16844,60.16844,0,0,1-6.51916-4.694,155.48654,155.48654,0,0,1-18.7583-19.067c-4.79547-5.657-8.34186-10.27988-10.74829-13.43726-1.1908-1.58826-2.10376-2.80591-2.719-3.6265Z" transform="translate(28.86089 -233.86822)"/><rect class="cls-12" x="419.84631" y="545.76458" width="53.54829" height="1.46421" transform="translate(1148.25296 525.95172) rotate(146.85001)"/><rect class="cls-13" x="421.3761" y="533.51527" width="47.12131" height="11.92286" transform="matrix(0.83724, -0.54683, 0.54683, 0.83724, -193.72555, 97.24195)"/><line class="cls-13" x1="493.52361" y1="292.72475" x2="454.07168" y2="318.49222"/><line class="cls-13" x1="456.44776" y1="309.82" x2="462.96758" y2="319.80231"/><line class="cls-13" x1="462.08376" y1="306.13893" x2="468.60357" y2="316.12125"/><line class="cls-13" x1="467.71975" y1="302.45786" x2="474.23956" y2="312.44018"/><line class="cls-13" x1="473.35574" y1="298.77679" x2="479.87555" y2="308.75911"/><line class="cls-13" x1="478.99173" y1="295.09573" x2="485.51154" y2="305.07805"/><line class="cls-13" x1="484.62772" y1="291.41466" x2="491.14753" y2="301.39698"/><rect class="cls-13" x="428.58221" y="544.54836" width="47.12131" height="11.92286" transform="translate(-198.58595 102.97821) rotate(-33.14999)"/><line class="cls-13" x1="500.72972" y1="303.75784" x2="461.27779" y2="329.52531"/><line class="cls-13" x1="463.65387" y1="320.85309" x2="470.17368" y2="330.8354"/><line class="cls-13" x1="469.28986" y1="317.17202" x2="475.80967" y2="327.15434"/><line class="cls-13" x1="474.92585" y1="313.49095" x2="481.44566" y2="323.47327"/><line class="cls-13" x1="480.56184" y1="309.80988" x2="487.08165" y2="319.7922"/><line class="cls-13" x1="486.19783" y1="306.12882" x2="492.71764" y2="316.11114"/><line class="cls-13" x1="491.83382" y1="302.44775" x2="498.35363" y2="312.43007"/><rect class="cls-12" x="364.44638" y="581.65678" width="53.54829" height="1.46421" transform="translate(-225.93409 74.85247) rotate(-33.14999)"/><rect class="cls-12" x="397.75587" y="531.31311" width="0.96283" height="12.51002" transform="translate(-2.68546 -208.99732) rotate(-3.4409)"/><rect class="cls-12" x="401.92676" y="528.68474" width="0.95019" height="12.51002" transform="translate(1090.86669 187.00832) rotate(117.14092)"/><rect class="cls-12" x="400.32822" y="531.11729" width="1.40805" height="12.51002" transform="translate(-199.72061 72.89102) rotate(-33.14999)"/><circle class="cls-12" cx="397.5207" cy="531.98586" r="1.26303" transform="translate(-197.34666 70.09411) rotate(-33.14999)"/><rect class="cls-14" x="413.01743" y="544.57232" width="12.77939" height="41.13367" rx="4" ry="4" transform="translate(-211.91377 87.45829) rotate(-33.14999)"/><rect class="cls-12" x="421.01741" y="575.52685" width="15.99034" height="8.99456" rx="2.33333" ry="2.33333" transform="translate(-218.49 95.13352) rotate(-33.14999)"/><rect class="cls-14" x="406.78264" y="540.64875" width="2.36203" height="14.17219" transform="translate(-204.25904 78.36793) rotate(-33.14999)"/><path class="cls-14" d="M406.68884,545.903a11.09021,11.09021,0,0,0,4.57858-12.39446l-17.76807,11.605A11.09021,11.09021,0,0,0,406.68884,545.903Z" transform="translate(28.86089 -233.86822)"/><rect class="cls-12" x="402.60261" y="547.01245" width="15.99034" height="8.99456" rx="2.33333" ry="2.33333" transform="translate(-205.89455 80.42275) rotate(-33.14999)"/><rect class="cls-13" x="361.9087" y="572.06409" width="47.12131" height="11.92286" transform="matrix(0.83724, -0.54683, 0.54683, 0.83724, -224.48411, 70.99737)"/><line class="cls-13" x1="394.60428" y1="357.04104" x2="434.05621" y2="331.27357"/><line class="cls-13" x1="425.16031" y1="329.96348" x2="431.68012" y2="339.9458"/><line class="cls-13" x1="419.52432" y1="333.64454" x2="426.04413" y2="343.62686"/><line class="cls-13" x1="413.88833" y1="337.32561" x2="420.40814" y2="347.30793"/><line class="cls-13" x1="408.25234" y1="341.00668" x2="414.77215" y2="350.989"/><line class="cls-13" x1="402.61635" y1="344.68775" x2="409.13616" y2="354.67007"/><line class="cls-13" x1="396.98036" y1="348.36881" x2="403.50017" y2="358.35113"/><rect class="cls-13" x="369.1148" y="583.09718" width="47.12131" height="11.92286" transform="translate(-229.34451 76.73362) rotate(-33.14999)"/><line class="cls-13" x1="401.81038" y1="368.07413" x2="441.26232" y2="342.30666"/><line class="cls-13" x1="432.36642" y1="340.99657" x2="438.88623" y2="350.97889"/><line class="cls-13" x1="426.73043" y1="344.67763" x2="433.25024" y2="354.65995"/><line class="cls-13" x1="421.09444" y1="348.3587" x2="427.61425" y2="358.34102"/><line class="cls-13" x1="415.45845" y1="352.03977" x2="421.97826" y2="362.02209"/><line class="cls-13" x1="409.82246" y1="355.72084" x2="416.34227" y2="365.70316"/><line class="cls-13" x1="404.18647" y1="359.4019" x2="410.70628" y2="369.38422"/><g class="cls-15"><rect class="cls-16" x="413.01743" y="544.57232" width="12.77939" height="41.13367" rx="4" ry="4" transform="translate(-211.91377 87.45829) rotate(-33.14999)"/><rect class="cls-17" x="421.01741" y="575.52685" width="15.99034" height="8.99456" rx="2.33333" ry="2.33333" transform="translate(-218.49 95.13352) rotate(-33.14999)"/><rect class="cls-16" x="406.78264" y="540.64875" width="2.36203" height="14.17219" transform="translate(-204.25904 78.36793) rotate(-33.14999)"/><path class="cls-16" d="M406.68884,545.903a11.09021,11.09021,0,0,0,4.57858-12.39446l-17.76807,11.605A11.09021,11.09021,0,0,0,406.68884,545.903Z" transform="translate(28.86089 -233.86822)"/><rect class="cls-17" x="402.60261" y="547.01244" width="15.99034" height="8.99456" rx="2.33333" ry="2.33333" transform="translate(-205.89455 80.42275) rotate(-33.14999)"/></g><line class="cls-18" x1="144.17613" y1="174.22905" x2="8.57463" y2="153.40312"/><line class="cls-19" x1="203.03723" y1="182.85882" x2="144.17613" y2="174.22905"/><line class="cls-19" x1="154.65632" y1="99.40371" x2="143.48977" y2="174.84868"/><line class="cls-19" x1="68.11128" y1="36.84598" x2="9.27195" y2="153.70335"/><line class="cls-19" x1="132.9249" y1="296.24771" x2="143.6809" y2="172.34539"/><polygon class="cls-20" points="134.194 298.132 145.372 302.917 135.411 295.716 139.52 294.07 135.273 294.753 140.032 283.637 132.922 293.472 131.296 289.414 132 293.792 120.752 288.976 130.561 296.067 126.64 297.638 130.933 296.947 126.092 308.256 133.273 298.323 134.864 302.294 134.194 298.132"/><path class="cls-21" d="M101.70348,534.22573a5.18819,5.18819,0,1,1,7.071-1.95836A5.19416,5.19416,0,0,1,101.70348,534.22573Zm4.40747-7.784a3.757,3.757,0,1,0,1.41812,5.1204A3.76118,3.76118,0,0,0,106.11095,526.44178Z" transform="translate(28.86089 -233.86822)"/><circle class="cls-22" cx="133.19584" cy="295.90676" r="11.31126"/><polygon class="cls-11" points="145.809 175.688 157.018 170.976 144.918 173.134 146.591 169.035 144.13 172.564 139.444 161.416 141.575 173.364 137.527 171.712 141.164 174.249 129.884 178.99 141.8 176.865 140.204 180.776 142.691 177.209 147.458 188.55 145.306 176.482 149.267 178.099 145.809 175.688"/><path class="cls-23" d="M116.02592,413.71252a5.18819,5.18819,0,1,1,3.50627-6.4452A5.19416,5.19416,0,0,1,116.02592,413.71252Zm-2.53356-8.57885a3.757,3.757,0,1,0,4.66721,2.539A3.76118,3.76118,0,0,0,113.49236,405.13367Z" transform="translate(28.86089 -233.86822)"/><circle class="cls-24" cx="114.65465" cy="408.7272" r="11.31126" transform="translate(-230.04867 -26.76789) rotate(-45.97289)"/><polygon class="cls-11" points="204.046 184.459 213.232 186.961 204.729 182.454 207.737 180.733 204.517 181.722 207.006 172.586 202.555 180.983 200.856 178.011 201.875 181.33 192.631 178.812 201.005 183.251 198.134 184.893 201.389 183.893 198.857 193.188 203.352 184.707 205.015 187.615 204.046 184.459"/><path class="cls-23" d="M172.61062,420.44616a4.06268,4.06268,0,1,1,5.27221-2.28352A4.06735,4.06735,0,0,1,172.61062,420.44616Zm2.57646-6.51356a2.94194,2.94194,0,1,0,1.65358,3.81781A2.94524,2.94524,0,0,0,175.18708,413.93259Z" transform="translate(28.86089 -233.86822)"/><circle class="cls-24" cx="174.17016" cy="416.70975" r="8.85743" transform="matrix(0.99042, -0.13811, 0.13811, 0.99042, -27.01993, -205.82131)"/><polygon class="cls-11" points="155.157 101.084 161.019 103.656 155.809 99.818 157.98 98.971 155.741 99.31 158.298 93.48 154.509 98.625 153.672 96.481 154.022 98.789 148.123 96.201 153.254 99.98 151.182 100.788 153.446 100.445 150.844 106.376 154.671 101.18 155.49 103.279 155.157 101.084"/><path class="cls-23" d="M124.37466,336.10706a2.73157,2.73157,0,1,1,3.73192-.99786A2.73472,2.73472,0,0,1,124.37466,336.10706Zm2.35694-4.0774a1.978,1.978,0,1,0,.72259,2.70242A1.98026,1.98026,0,0,0,126.73161,332.02965Z" transform="translate(28.86089 -233.86822)"/><circle class="cls-24" cx="125.78095" cy="333.77618" r="5.95536" transform="translate(-180.24167 222.71031) rotate(-89.48955)"/><polygon class="cls-11" points="10.99 153.247 18.128 146.946 9.689 151.575 9.905 148.116 8.962 151.35 2.695 144.251 7.266 152.583 3.85 152.37 7.183 153.342 0 159.683 8.31 155.125 8.104 158.426 9.057 155.157 15.432 162.379 10.816 153.963 14.159 154.171 10.99 153.247"/><path class="cls-23" d="M-17.51506,390.43063a4.06735,4.06735,0,0,1-5.65981-.98854,4.06735,4.06735,0,0,1,.98854-5.65981,4.06735,4.06735,0,0,1,5.65981.98854A4.06735,4.06735,0,0,1-17.51506,390.43063Zm-4.027-5.73134a2.94524,2.94524,0,0,0-.71584,4.09849,2.94524,2.94524,0,0,0,4.09849.71584,2.94524,2.94524,0,0,0,.71584-4.09849A2.94524,2.94524,0,0,0-21.542,384.6993Z" transform="translate(28.86089 -233.86822)"/><circle class="cls-24" cx="-19.78024" cy="387.07477" r="8.85743" transform="translate(-332.13287 -30.61801) rotate(-64.61236)"/><polygon class="cls-20" points="69.797 38.522 81.842 36.864 69.596 35.825 72.269 32.297 68.981 35.071 67.332 23.092 66.306 35.185 62.822 32.544 65.681 35.933 53.56 37.602 65.62 38.625 63.069 41.991 66.392 39.188 68.07 51.374 69.106 39.16 72.516 41.745 69.797 38.522"/><path class="cls-21" d="M38.97254,276.16839a5.18819,5.18819,0,1,1,5.051-5.32183A5.19416,5.19416,0,0,1,38.97254,276.16839Zm-0.23346-8.9421a3.757,3.757,0,1,0,3.85374,3.65763A3.76118,3.76118,0,0,0,38.73907,267.22629Z" transform="translate(28.86089 -233.86822)"/><circle class="cls-22" cx="38.93447" cy="270.99806" r="11.31126" transform="translate(-105.2086 -175.06222) rotate(-31.0152)"/><line class="cls-25" x1="649.16055" y1="181.34184" x2="510.25442" y2="186.8672"/><path class="cls-26" d="M583.489,417.09124" transform="translate(28.86089 -233.86822)"/><path class="cls-26" d="M642.35009,403" transform="translate(28.86089 -233.86822)"/><line class="cls-19" x1="650.36089" y1="101.13178" x2="649.36089" y2="182.29845"/><line class="cls-19" x1="592.86019" y1="28.39219" x2="510.25442" y2="186.8672"/><line class="cls-19" x1="650.53628" y1="296.73407" x2="649.36089" y2="182.29845"/><polygon class="cls-20" points="651.535 298.959 662.712 303.744 652.752 296.543 656.861 294.898 652.614 295.581 657.372 284.464 650.262 294.3 648.637 290.241 649.341 294.619 638.092 289.804 647.901 296.895 643.98 298.465 648.273 297.775 643.432 309.084 650.614 299.15 652.204 303.121 651.535 298.959"/><path class="cls-21" d="M619.0439,535.053a5.18819,5.18819,0,1,1,7.071-1.95836A5.19416,5.19416,0,0,1,619.0439,535.053Zm4.40747-7.784a3.757,3.757,0,1,0,1.41812,5.1204A3.76118,3.76118,0,0,0,623.45137,527.26909Z" transform="translate(28.86089 -233.86822)"/><circle class="cls-22" cx="650.53626" cy="296.73408" r="11.31126"/><polygon class="cls-11" points="651.58 181.647 661.484 174.594 650.151 179.351 650.884 174.986 649.257 178.968 642.242 169.118 646.939 180.309 642.628 179.584 646.732 181.262 636.766 188.36 647.926 183.675 647.226 187.841 648.871 183.816 656.008 193.836 651.264 182.533 655.483 183.242 651.58 181.647"/><path class="cls-23" d="M622.7303,419.77358a5.18819,5.18819,0,1,1,2.0083-7.057A5.19416,5.19416,0,0,1,622.7303,419.77358Zm-4.35233-7.81491a3.757,3.757,0,1,0,5.11024,1.45428A3.76118,3.76118,0,0,0,618.378,411.95867Z" transform="translate(28.86089 -233.86822)"/><circle class="cls-24" cx="620.29965" cy="415.21006" r="11.31126" transform="translate(-28.2372 494.87548) rotate(-58.63424)"/><polygon class="cls-11" points="651.421 103.755 657.283 106.326 652.073 102.489 654.244 101.642 652.005 101.981 654.562 96.151 650.773 101.296 649.936 99.151 650.286 101.46 644.387 98.872 649.518 102.651 647.446 103.459 649.71 103.116 647.108 109.047 650.935 103.851 651.754 105.949 651.421 103.755"/><path class="cls-23" d="M620.63859,338.77782a2.73157,2.73157,0,1,1,3.73192-.99786A2.73472,2.73472,0,0,1,620.63859,338.77782Zm2.35694-4.0774a1.978,1.978,0,1,0,.72259,2.70243A1.98026,1.98026,0,0,0,622.99554,334.70042Z" transform="translate(28.86089 -233.86822)"/><circle class="cls-24" cx="622.04488" cy="336.44694" r="5.95536" transform="translate(308.9304 721.60152) rotate(-89.48955)"/><polygon class="cls-20" points="512.164 186.908 519.301 180.607 510.863 185.236 511.079 181.777 510.136 185.01 503.869 177.912 508.44 186.244 505.023 186.031 508.357 187.003 501.174 193.344 509.483 188.785 509.278 192.086 510.231 188.817 516.606 196.039 511.989 187.624 515.333 187.832 512.164 186.908"/><path class="cls-21" d="M483.65869,424.09128a4.06268,4.06268,0,1,1,.98854-5.65981A4.06735,4.06735,0,0,1,483.65869,424.09128Zm-4.027-5.73134a2.94194,2.94194,0,1,0,4.09849.71584A2.94524,2.94524,0,0,0,479.63173,418.35994Z" transform="translate(28.86089 -233.86822)"/><circle class="cls-22" cx="481.39351" cy="420.73542" r="8.85743" transform="translate(-76.24245 441.38527) rotate(-64.61236)"/><polygon class="cls-11" points="594.862 29.785 606.907 28.126 594.66 27.087 597.334 23.56 594.046 26.333 592.397 14.354 591.371 26.447 587.887 23.806 590.746 27.195 578.624 28.865 590.685 29.888 588.133 33.254 591.457 30.45 593.135 42.637 594.171 30.423 597.581 33.007 594.862 29.785"/><path class="cls-23" d="M564.03735,267.43074a5.18819,5.18819,0,1,1,5.051-5.32183A5.19416,5.19416,0,0,1,564.03735,267.43074Zm-0.23346-8.9421a3.757,3.757,0,1,0,3.85374,3.65763A3.76118,3.76118,0,0,0,563.80389,258.48864Z" transform="translate(28.86089 -233.86822)"/><circle class="cls-24" cx="563.99928" cy="262.2604" r="11.31126" transform="translate(-25.63822 94.23632) rotate(-31.0152)"/></svg>