<svg id="Layer_1" data-name="Layer 1" xmlns="http://www.w3.org/2000/svg" viewBox="0 0 140.55687 88.11444"><defs><style>.cls-1{fill:#d9dad9;}.cls-2{fill:#bcbebd;}.cls-3{fill:#787879;}.cls-4{fill:#545454;}</style></defs><title>right-hand</title><path class="cls-1" d="M245.24289,437.98131c9.113,1.70336,32.91229,4.62829,43.71164,0S329.0664,419.9824,329.0664,419.9824l-10.54222-37.79772s-24.4271,15.17051-37.28347,16.71328-17.9989-3.59978-27.76976-3.59978C240.5362,392.88049,232.30814,435.56363,245.24289,437.98131Z" transform="translate(-238.47558 -352.35688)"/><path class="cls-2" d="M244.98578,437.98128c9.113,1.70341,32.91227,4.62829,43.71162,0s40.11187-17.99895,40.11187-17.99895l-6.72012-24.0943c-4.47339,2.79023-26.7592,16.40562-38.40573,18.13529-9.94266,1.47666-33.06039-1.64277-43.35474-3.18647C237.12959,422.49121,237.7021,436.61987,244.98578,437.98128Z" transform="translate(-238.47558 -352.35688)"/><path class="cls-3" d="M374.96363,377.12562c-4.62829.77138-17.13114,2.66763-17.13114,2.66763s14.65635-10.63861,17.45261-12.88845c4.03742-3.35653-.398-8.69189-4.43545-5.33546-2.98911,2.21772-18.449,10.73513-18.449,10.73513s9.86723-10.1887,13.30634-14.20626-1.54276-7.87456-5.14252-4.37123c-3.41886,3.32715-17.23519,14.85024-18.61713,16.00166,0.577-1.14511.796-11.596-1.11743-14.71605-2.30953-3.76614-7.24668-1.36272-5.84968,2.82846a16.10853,16.10853,0,0,1-1.02845,11.31357c-1.79992,3.85691-8.09951,7.45666-8.09951,7.45666s-9.7709,3.59985-26.35562,10.928,9.89943,53.3539,19.41318,43.84015,24.94129-28.02682,24.94129-28.02682a42.48406,42.48406,0,0,1,5.14261-4.11407c2.37837-1.51065,4.6604-3.69617,6.58886-4.08187s13.85277,1.89625,13.85277,1.89625c3.28007,0.54671,4.18-4.853.89991-5.39967l-12.14927-3.66406s16.874-3.85691,19.34887-4.82114S379.59193,376.35424,374.96363,377.12562Z" transform="translate(-238.47558 -352.35688)"/><path class="cls-4" d="M318.9099,431.37943c9.51365-9.51365,24.94129-28.02682,24.94129-28.02682a42.48406,42.48406,0,0,1,5.14261-4.11407c2.37837-1.51065,4.6604-3.69617,6.58886-4.08187s13.85277,1.89625,13.85277,1.89625c3.28007,0.54671,4.18-4.853.89991-5.39967l-12.14927-3.66406s16.874-3.85691,19.34887-4.82114,2.057-6.81381-2.57131-6.04243c-3.84881.64144-13.88481,2.17566-16.90612,2.63556L298.82864,414.5675C304.51993,426.33842,313.98434,436.305,318.9099,431.37943Z" transform="translate(-238.47558 -352.35688)"/></svg>